<svg xmlns="http://www.w3.org/2000/svg" width="30" height="30" viewBox="0 0 30 30"><g><g opacity=".63"><path fill="#000" d="M17.854 14.985a2.868 2.868 0 1 1-5.737 0 2.868 2.868 0 0 1 5.737 0z"/></g><g opacity=".63"><path fill="#000" d="M19.58 11.425a1.033 1.033 0 1 1 0-2.065 1.033 1.033 0 0 1 0 2.065zm-4.594 7.98a4.419 4.419 0 1 1 0-8.838 4.419 4.419 0 0 1 0 8.838zm6.065-10.483a2.664 2.664 0 0 0-.99-.644c-.303-.118-.759-.258-1.598-.296-.907-.041-1.18-.05-3.477-.05-2.298 0-2.57.008-3.477.05-.839.038-1.295.178-1.598.296a2.662 2.662 0 0 0-.989.644 2.668 2.668 0 0 0-.644.99c-.118.302-.258.758-.296 1.597-.041.907-.05 1.18-.05 3.477 0 2.298.009 2.57.05 3.477.038.84.178 1.295.296 1.598.138.374.358.712.644.99.277.285.615.505.99.643.302.118.758.258 1.597.297.907.04 1.18.05 3.477.05 2.298 0 2.57-.01 3.477-.05.84-.039 1.295-.179 1.598-.297a2.85 2.85 0 0 0 1.633-1.633c.118-.303.258-.759.297-1.598.041-.907.05-1.18.05-3.477 0-2.298-.009-2.57-.05-3.477-.039-.839-.179-1.295-.297-1.598a2.666 2.666 0 0 0-.643-.99z"/></g><g opacity=".63"><path fill="#000" d="M23.138 20.622a4.4 4.4 0 0 1-2.516 2.516c-.547.213-1.173.358-2.089.4-.917.042-1.21.052-3.547.052-2.338 0-2.63-.01-3.548-.052-.916-.041-1.542-.187-2.089-.4a4.216 4.216 0 0 1-1.524-.992 4.217 4.217 0 0 1-.992-1.524c-.213-.547-.359-1.173-.4-2.089-.043-.918-.053-1.21-.053-3.548 0-2.337.01-2.63.052-3.547.042-.916.187-1.542.4-2.09a4.215 4.215 0 0 1 .993-1.523c.43-.438.95-.777 1.524-.993.547-.212 1.173-.358 2.089-.4.917-.041 1.21-.051 3.547-.051s2.63.01 3.548.052c.916.041 1.541.187 2.089.4a4.218 4.218 0 0 1 1.524.992c.438.43.777.95.992 1.524.213.547.359 1.173.4 2.089.042.917.052 1.21.052 3.547s-.01 2.63-.052 3.548c-.041.916-.187 1.541-.4 2.089zM14.985 0C6.71 0 0 6.71 0 14.985c0 8.275 6.71 14.986 14.985 14.986 8.275 0 14.986-6.71 14.986-14.986C29.97 6.71 23.26 0 14.985 0z"/></g></g></svg>