<?xml version="1.0" encoding="UTF-8"?>
<svg width="361px" height="363px" viewBox="0 0 361 363" version="1.1" xmlns="http://www.w3.org/2000/svg" xmlns:xlink="http://www.w3.org/1999/xlink">
    <title>Lancer logo newest</title>
    <g id="Logos" stroke="none" stroke-width="1" fill="none" fill-rule="evenodd" opacity="0.855198451">
        <g id="Artboard-Copy-5" transform="translate(0.000000, -1.000000)">
            <g id="Lancer-logo-newest" transform="translate(1.000000, 4.000000)">
                <g id="Group" transform="translate(-3.042493, -3.051136)" fill="#FFFFFF">
                    <path d="M182.751365,0 L182.751365,365.119318 C170.848117,313.089292 148.762516,270.64593 116.494561,237.789233 C90.3608938,210.576804 51.5293734,189.753476 0,175.319249 C45.3349651,165.10456 83.0633511,145.787535 113.185158,117.368176 C143.306965,88.9488169 166.495701,49.8260916 182.751365,0 Z" id="Path-2"></path>
                    <path d="M365.09915,0 L365.09915,365.119318 C353.464956,313.089292 331.513881,270.64593 299.245926,237.789233 C273.112259,210.576804 234.280738,189.753476 182.751365,175.319249 C228.08633,165.10456 265.814716,145.787535 295.936523,117.368176 C326.05833,88.9488169 349.112539,49.8260916 365.09915,0 Z" id="Path-2-Copy" transform="translate(273.925258, 182.559659) scale(-1, 1) translate(-273.925258, -182.559659) "></path>
                </g>
                <g id="Logo-LR-Copy" transform="translate(18.254958, 10.170455)">
                    <path d="M161.252125,3.66136364 C157.538702,15.924026 153.189518,27.5474026 148.190125,38.5314935 C151.672361,45.6798701 155.169047,52.8137175 158.651284,59.9620942 L158.651284,163.322971 C151.296684,154.896023 143.942085,146.469075 136.587485,138.056656 L136.587485,265.448864 C107.28468,214.698295 61.7699671,180.264042 -3.28534841e-14,162.146104 C83.226903,137.737013 136.977611,83.6883117 161.252125,0 L161.252125,3.66136364 L161.252125,3.66136364 Z" id="Shape" fill="#E31E24"></path>
                    <path d="M161.535873,3.64830485 C165.266451,15.9159116 169.635726,27.5439748 174.658216,38.5324946 C171.159892,45.6837535 167.647053,52.8204774 164.148729,59.9717363 L164.148729,177.269824 C156.760154,168.839479 149.371578,160.409133 141.983003,151.993322 L141.983003,275.076371 C149.836086,290.192854 156.069961,306.646563 161.252125,324.4375 C178.743742,264.378553 211.760767,219.58144 259.721186,190.046159 C259.387321,181.281506 258.138957,176.165158 256.26641,172.458713 C254.074514,166.630146 247.643986,161.426588 239.471554,159.130046 C247.179478,157.531187 250.111683,153.781137 250.750381,150.336323 C251.389079,146.891509 249.705239,143.751932 246.018209,142.240284 C242.984393,141.004802 238.600602,140.859451 234.449064,143.562976 C232.707161,144.696712 231.037836,144.638572 229.223353,143.708327 C226.349212,142.225749 222.546055,142.007723 219.309017,142.894362 C214.954257,144.100774 211.615608,147.342097 209.786609,150.379928 C208.509213,152.487515 207.972126,154.507891 207.754388,156.499196 L224.404086,156.499196 L224.404086,161.731825 L207.754388,161.731825 C207.972126,163.723131 208.523729,165.743507 209.786609,167.851093 C211.615608,170.90346 214.954257,174.144782 219.309017,175.351194 C223.663777,176.557606 229.049163,175.729106 231.836209,172.545924 L231.836209,178.883218 C214.518781,186.136223 201.483534,173.563379 201.483534,159.130046 C201.483534,145.249045 213.531703,131.920378 229.833019,138.475698 C231.124931,138.998961 232.562002,138.984426 233.824882,138.432093 C243.913409,134.12971 250.851992,137.283822 254.306768,142.298424 C257.993798,147.632798 257.732512,155.074759 250.460064,159.115511 C260.113114,162.633 265.454953,171.601144 266.500095,186.005407 C283.672363,176.223299 302.673631,168.301681 323.518414,162.211482 C239.90703,137.79255 185.638778,83.7220555 161.252125,0 C161.266641,1.20641156 161.252125,2.42735821 161.252125,3.64830485 L161.535873,3.64830485 Z" id="Shape" fill="#008DD2"></path>
                    <path d="M200.804533,146.144564 C198.103975,143.012771 192.899774,142.179541 188.666087,143.371921 C184.446465,144.564301 181.211421,147.767926 179.43918,150.770425 C177.666939,153.772925 177.343435,156.588666 177.343435,159.404408 C177.343435,162.220149 177.666939,165.03589 179.43918,168.03839 C181.211421,171.04089 184.446465,174.25888 188.666087,175.45126 C190.810306,176.057173 193.857867,175.925508 196.056426,175.45126 C198.184424,174.992232 200.64152,172.454357 200.64152,172.454357 C200.731549,172.364707 200.804533,172.388453 200.804533,172.516533 C200.804533,172.516533 200.804533,176.844765 200.804533,178.942205 C184.024503,186.110852 171.393768,173.684239 171.393768,159.418774 C171.393768,149.338981 177.687172,139.559826 187.290968,137.640126 C191.29267,136.840227 195.869126,137.404897 200.804533,139.880977 L200.804533,146.144564 Z" id="Shape" fill="#FFFFFF"></path>
                    <path d="M112.991196,138.5211 C113.042938,138.409337 113.12859,138.412061 113.182189,138.527868 L113.182189,138.527868 L132.758474,180.824405 C132.811987,180.940024 132.753691,181.034091 132.628073,181.034091 L132.628073,181.034091 L127.45852,181.034091 C127.328692,181.034091 127.187723,180.940625 127.134253,180.825329 L127.134253,180.825329 L122.254569,170.303412 C122.201612,170.189223 122.052362,170.094651 121.922356,170.094651 L121.922356,170.094651 L98.6093345,170.094651 C98.4799761,170.094651 98.4159973,170.003801 98.4678805,169.891732 L98.4678805,169.891732 Z M112.986133,150.724009 L106.58044,164.560082 C106.528974,164.671247 106.585794,164.761364 106.716087,164.761364 L119.442553,164.761364 C119.568935,164.761364 119.629292,164.670439 119.578201,164.560082 L113.172508,150.724009 C113.121042,150.612844 113.037224,150.613652 112.986133,150.724009 Z" id="Shape" fill="#FFFFFF"></path>
                    <path d="M83.1614731,180.804268 C83.1614731,180.931196 83.2651462,181.034091 83.3912981,181.034091 L102.20077,181.034091 C102.327699,181.034091 102.430595,180.925288 102.430595,180.810256 L102.430595,176.048669 C102.430595,175.925048 102.336785,175.824834 102.199845,175.824834 L87.9710242,175.824834 C87.8435845,175.824834 87.7402743,175.71724 87.7402743,175.604571 L87.7402743,138.538444 C87.7402743,138.416797 87.6446395,138.318182 87.5194292,138.318182 L83.3823182,138.318182 C83.2603488,138.318182 83.1614731,138.412249 83.1614731,138.548005 L83.1614731,180.804268 Z" id="Shape" fill="#FFFFFF"></path>
                    <path d="M174.658216,38.5324946 C169.538293,27.737035 165.145257,14.7331782 161.252125,2.53685713 C157.358992,14.7187447 153.3035,27.7968822 148.062162,38.7086204 C151.712921,45.8099103 154.902102,52.8823331 158.552861,59.983623 C158.552861,94.2054896 158.650966,163.098183 158.650966,163.098183 C158.651141,163.22233 158.588014,163.248885 158.498664,163.144261 L136.748146,137.675596 C136.663856,137.576898 136.594738,137.592766 136.593647,137.725986 C136.593647,137.725986 135.898017,222.104502 135.898017,264.279236 C137.773841,267.518687 140.225791,271.857697 141.983003,275.076371 L141.983003,152.216265 C141.983003,152.093137 142.047007,152.066782 142.137393,152.170521 L164.140227,177.423916 C164.225495,177.521781 164.294618,177.493365 164.294618,177.377487 L164.294618,59.983623 C167.945376,52.8967667 174.658216,38.5324946 174.658216,38.5324946 Z" id="Shape" fill="#FFFFFF"></path>
                    <path d="M259.506805,190.173178 C260.395395,163.002791 239.285179,159.228271 239.285179,159.228271 C239.047839,159.176711 239.053762,159.083419 239.289533,159.019222 C239.289533,159.019222 244.68216,157.695776 248.090783,154.934865 C249.80079,153.549797 250.533946,151.499333 250.616822,150.122506 C250.855078,146.164348 249.539585,144.336482 246.903086,142.833654 C245.592098,142.086379 243.743361,141.652221 241.580848,141.715598 C239.50577,141.776412 237.278677,142.496524 235.015868,143.708327 C233.153805,144.705518 231.034361,144.643166 229.223353,143.708327 C226.354717,142.218427 222.994535,141.942635 219.763698,142.833654 C215.417279,144.046024 212.085025,147.303354 210.259529,150.356189 C208.98458,152.474184 208.270525,156.306269 208.270525,156.306269 C208.248807,156.4164 208.337319,156.505678 208.466115,156.505678 L224.614093,156.505678 C224.743832,156.505678 224.849007,156.615509 224.849007,156.731628 L224.849007,161.538199 C224.849007,161.662988 224.742889,161.764149 224.614093,161.764149 L208.466115,161.764149 C208.336376,161.764149 208.25122,161.86555 208.27599,161.98679 C208.27599,161.98679 208.999068,165.795644 210.259529,167.913639 C212.085025,170.98108 214.885593,174.731173 220.729999,175.618577 C226.574404,176.505981 231.666107,172.333146 231.666107,172.333146 C231.760051,172.259951 231.836209,172.300429 231.836209,172.432983 C231.836209,172.432983 231.836209,176.914737 231.836209,179.047339 C214.551951,186.336164 201.483534,173.634661 201.483534,159.130046 C201.483534,152.565926 204.115936,146.005122 208.745279,141.715598 C213.953855,136.889359 221.586782,134.776646 230.2008,138.264427 C231.490238,138.790274 233.014603,138.819488 234.275064,138.264427 C236.337905,137.314096 238.410573,136.843974 240.271496,136.549454 C247.121258,135.465373 251.982909,138.271999 254.694414,142.234772 C258.374382,147.595491 258.434241,155.074206 251.175722,159.134914 C266.500095,165.18098 266.500095,186.005407 266.500095,186.005407" id="Shape" fill="#FFFFFF"></path>
                </g>
            </g>
        </g>
    </g>
</svg>