<svg xmlns="http://www.w3.org/2000/svg" width="30" height="30" viewBox="0 0 30 30"><g><g opacity=".86"><path fill="#fff" d="M11.373 8.553c-.277-.611-.568-.624-.83-.634-.216-.01-.462-.009-.708-.009-.246 0-.645.092-.984.46-.338.367-1.291 1.256-1.291 3.063 0 1.807 1.322 3.553 1.507 3.798.184.245 2.552 4.072 6.302 5.544 3.117 1.224 3.75.98 4.427.92.677-.062 2.183-.889 2.49-1.747.308-.857.308-1.592.216-1.746-.092-.153-.338-.245-.707-.428-.37-.184-2.183-1.073-2.521-1.195-.339-.123-.585-.184-.83.184-.247.367-.953 1.194-1.169 1.44-.215.245-.43.275-.8.091-.368-.184-1.556-.571-2.966-1.822-1.097-.974-1.837-2.176-2.053-2.544-.215-.367-.023-.566.162-.75.166-.164.37-.428.554-.643.184-.214.246-.367.369-.612s.061-.46-.031-.643c-.092-.184-.81-2-1.137-2.727z"/></g><g opacity=".86"><path fill="#fff" d="M15.055 26.92h-.005a12.29 12.29 0 0 1-6.244-1.703l-.448-.265-4.643 1.212 1.24-4.507-.293-.462a12.145 12.145 0 0 1-1.875-6.5C2.79 7.961 8.293 2.482 15.059 2.482a12.213 12.213 0 0 1 8.674 3.582 12.115 12.115 0 0 1 3.59 8.641C27.32 21.44 21.815 26.92 15.054 26.92zM15.06 0C6.92 0 .297 6.592.294 14.694a14.618 14.618 0 0 0 1.97 7.347L.17 29.656l7.828-2.044a14.808 14.808 0 0 0 7.056 1.79h.006c8.138 0 14.762-6.594 14.766-14.696A14.573 14.573 0 0 0 25.505 4.31 14.707 14.707 0 0 0 15.06 0z"/></g></g></svg>